# xmcd
#
# Track frame offsets:
#	182
#	19970
#	43222
#	72392
#	94627
#	123407
#	144675
#
# Disc length: 2195 seconds
#
# Revision: 1
# Processed by: cddbd v1.4PL0 Copyright (c) Steve Scherf et al.
# Submitted via: EasyCDDAExtractor 5.0.7
#
DISCID=65089107
DTITLE=No Mercy - Hello How Are You
DYEAR=1900
DGENRE=
TTITLE0=Hello How Are You(Radio Edit)
TTITLE1=Hello How Are You(Extended Version)
TTITLE2=Hello How Are You(Johnny Vicious Club Mix)
TTITLE3=Hello How Are You(Kai MacDonald Club Mix)
TTITLE4=Hello How Are You(Spike Club Mix)
TTITLE5=Hello How Are You(D.C. Club Mix)
TTITLE6=Hello How Are You(Unplugged Version)
EXTD=
EXTT0=
EXTT1=
EXTT2=
EXTT3=
EXTT4=
EXTT5=
EXTT6=
PLAYORDER=
